<svg width="45" height="45" viewBox="0 0 45 45" fill="none" xmlns="http://www.w3.org/2000/svg">
<rect x="45" y="45" width="45" height="45" transform="rotate(-180 45 45)" fill="#1090D7"/>
<path fill-rule="evenodd" clip-rule="evenodd" d="M30.2498 22.5C30.2498 22.2431 30.1477 21.9967 29.966 21.815C29.7844 21.6333 29.538 21.5312 29.281 21.5312L18.0571 21.5312L22.2169 17.3734C22.307 17.2833 22.3784 17.1764 22.4272 17.0587C22.4759 16.941 22.501 16.8149 22.501 16.6875C22.501 16.5601 22.4759 16.434 22.4272 16.3163C22.3784 16.1986 22.307 16.0917 22.2169 16.0016C22.1268 15.9116 22.0199 15.8401 21.9022 15.7914C21.7845 15.7426 21.6584 15.7175 21.531 15.7175C21.4037 15.7175 21.2775 15.7426 21.1598 15.7914C21.0422 15.8401 20.9352 15.9116 20.8452 16.0016L15.0327 21.8141C14.9424 21.9041 14.8709 22.011 14.822 22.1287C14.7732 22.2464 14.748 22.3726 14.748 22.5C14.748 22.6274 14.7732 22.7536 14.822 22.8713C14.8709 22.989 14.9424 23.0959 15.0327 23.1859L20.8452 28.9984C21.0271 29.1803 21.2738 29.2825 21.531 29.2825C21.7883 29.2825 22.035 29.1803 22.2169 28.9984C22.3988 28.8165 22.501 28.5697 22.501 28.3125C22.501 28.0552 22.3988 27.8085 22.2169 27.6266L18.0571 23.4687L29.281 23.4687C29.538 23.4687 29.7844 23.3667 29.966 23.185C30.1477 23.0033 30.2498 22.7569 30.2498 22.5Z" fill="white"/>
</svg>
