<svg width="25" height="25" viewBox="0 0 25 25" fill="none" xmlns="http://www.w3.org/2000/svg">
<path d="M11.704 6.82143L12.427 7.57831L13.1501 6.82143C14.0684 5.86018 15.5363 4.70374 17.1107 4.70374C18.6078 4.70374 19.819 5.22157 20.6535 6.0546C21.4879 6.88752 22.0059 8.09566 22.0059 9.58835C22.0059 11.2061 21.3762 12.5634 20.3557 13.8354C19.316 15.1313 17.9217 16.2786 16.4481 17.486L16.4265 17.5037C15.0759 18.6098 13.5932 19.8241 12.4379 21.1864H12.4172C11.2733 19.8354 9.80434 18.6306 8.46523 17.5322L8.40934 17.4863L8.40893 17.486C6.93494 16.2782 5.54085 15.1307 4.50149 13.8348C3.48132 12.5629 2.85205 11.2057 2.85205 9.58835C2.85205 8.09566 3.37009 6.88755 4.20454 6.05465C5.03911 5.22162 6.25052 4.70374 7.7482 4.70374C9.32109 4.70374 10.7849 5.85935 11.704 6.82143Z" stroke="#290E45" stroke-opacity="0.6" stroke-width="2"/>
</svg>
