<svg width="10" height="18" viewBox="0 0 10 18" fill="none" xmlns="http://www.w3.org/2000/svg">
<path d="M3.152 12.446C3.07867 12.1967 3.02 11.9253 2.976 11.632C2.94667 11.3387 2.932 11.0673 2.932 10.818C2.932 10.07 3.07133 9.44667 3.35 8.948C3.62867 8.43467 3.97333 7.99467 4.384 7.628C4.79467 7.24667 5.20533 6.89467 5.616 6.572C6.02667 6.24933 6.37133 5.90467 6.65 5.538C6.92867 5.15667 7.068 4.70933 7.068 4.196C7.068 3.68267 6.87 3.23533 6.474 2.854C6.078 2.458 5.54267 2.26 4.868 2.26C4.26667 2.26 3.724 2.40667 3.24 2.7C2.756 2.99333 2.316 3.39667 1.92 3.91L0.49 2.766C1.07667 2.04733 1.72933 1.48267 2.448 1.072C3.16667 0.661333 4.032 0.455999 5.044 0.455999C5.86533 0.455999 6.584 0.617333 7.2 0.94C7.83067 1.26267 8.322 1.69533 8.674 2.238C9.026 2.78067 9.202 3.382 9.202 4.042C9.202 4.79 9.05533 5.41333 8.762 5.912C8.46867 6.41067 8.10933 6.85067 7.684 7.232C7.25867 7.59867 6.826 7.96533 6.386 8.332C5.96067 8.684 5.60133 9.08733 5.308 9.542C5.01467 9.982 4.868 10.5393 4.868 11.214V12.446H3.152ZM4.12 17.264C3.724 17.264 3.37933 17.1173 3.086 16.824C2.79267 16.5307 2.646 16.186 2.646 15.79C2.646 15.3353 2.778 14.976 3.042 14.712C3.306 14.448 3.66533 14.316 4.12 14.316C4.50133 14.316 4.83867 14.4627 5.132 14.756C5.44 15.0493 5.594 15.394 5.594 15.79C5.594 16.23 5.45467 16.5893 5.176 16.868C4.89733 17.132 4.54533 17.264 4.12 17.264Z" fill="#76BCE4"/>
</svg>
