<svg width="24" height="24" viewBox="0 0 24 24" fill="none" xmlns="http://www.w3.org/2000/svg">
<path fill-rule="evenodd" clip-rule="evenodd" d="M10.9662 6.1663L12.2462 4.8863C13.2766 3.8543 15.0862 3.1391 16.883 2.8815C17.6796 2.75739 18.4898 2.74662 19.2894 2.8495C19.9982 2.9551 20.4318 3.1631 20.6334 3.3663C20.8366 3.5679 21.0446 4.0015 21.1502 4.7103C21.2526 5.3935 21.2446 6.2303 21.1182 7.1167C20.8622 8.9135 20.1454 10.7231 19.1134 11.7535L11.9998 18.8687L10.1662 17.0351C10.092 16.9607 10.0038 16.9017 9.90667 16.8614C9.80958 16.8211 9.70551 16.8003 9.60039 16.8003C9.49528 16.8002 9.39118 16.8208 9.29403 16.861C9.19689 16.9011 9.10861 16.96 9.03423 17.0343C8.88401 17.1843 8.79953 17.3878 8.79938 17.6001C8.79931 17.7052 8.81994 17.8093 8.8601 17.9065C8.90025 18.0036 8.95915 18.0919 9.03343 18.1663L11.4334 20.5663C11.5077 20.6408 11.596 20.6999 11.6932 20.7402C11.7904 20.7806 11.8946 20.8013 11.9998 20.8013C12.1051 20.8013 12.2092 20.7806 12.3064 20.7402C12.4036 20.6999 12.4919 20.6408 12.5662 20.5663L13.4414 19.6895L15.3134 22.8111C15.3759 22.9156 15.4613 23.0045 15.5633 23.071C15.6653 23.1375 15.7811 23.1799 15.9019 23.1948C16.0227 23.2098 16.1454 23.197 16.2605 23.1574C16.3756 23.1178 16.4802 23.0524 16.5662 22.9663L19.7662 19.7663C19.8541 19.6783 19.9202 19.571 19.9594 19.453C19.9986 19.3349 20.0097 19.2094 19.9918 19.0863L19.2478 13.8831L20.2462 12.8863C21.6142 11.5167 22.419 9.3263 22.7022 7.3423C22.8462 6.3391 22.8622 5.3423 22.7326 4.4719C22.6046 3.6271 22.323 2.7919 21.7662 2.2335C21.2078 1.6767 20.3726 1.3935 19.5262 1.2671C18.5733 1.14165 17.6073 1.15242 16.6574 1.2991C14.6718 1.5791 12.4798 2.3839 11.1134 3.7519L10.1166 4.7503L4.91343 4.0063C4.79035 3.98846 4.6648 3.99956 4.54676 4.03872C4.42872 4.07788 4.32144 4.14403 4.23343 4.2319L1.03343 7.4319C0.947297 7.51794 0.881941 7.62251 0.842338 7.73763C0.802735 7.85276 0.78993 7.9754 0.804897 8.09622C0.819865 8.21704 0.862211 8.33286 0.928709 8.43483C0.995208 8.53682 1.0841 8.62227 1.18863 8.6847L4.30863 10.5567L3.43343 11.4319C3.35893 11.5062 3.29982 11.5945 3.25949 11.6917C3.21916 11.7889 3.1984 11.8931 3.1984 11.9983C3.1984 12.1035 3.21916 12.2077 3.25949 12.3049C3.29982 12.4021 3.35893 12.4904 3.43343 12.5647L5.83343 14.9647C5.90781 15.0391 5.99611 15.0981 6.09329 15.1383C6.19048 15.1786 6.29464 15.1993 6.39983 15.1993C6.50502 15.1993 6.60918 15.1786 6.70636 15.1383C6.80354 15.0981 6.89185 15.0391 6.96623 14.9647C7.04061 14.8903 7.09961 14.802 7.13987 14.7048C7.18012 14.6076 7.20084 14.5035 7.20084 14.3983C7.20084 14.2931 7.18012 14.1889 7.13987 14.0918C7.09961 13.9946 7.04061 13.9063 6.96623 13.8319L5.13103 11.9999L6.16623 10.9663L10.9662 6.1663ZM16.1582 21.1103L14.6062 18.5231L17.8334 15.2975L18.3518 18.9167L16.1598 21.1087L16.1582 21.1103ZM5.47663 9.3919L8.70223 6.1663L5.08303 5.6479L2.89103 7.8399L5.47663 9.3919ZM3.76463 16.5663C3.83901 16.492 3.89803 16.4038 3.93833 16.3067C3.97862 16.2097 3.9994 16.1056 3.99947 16.0005C3.99955 15.8953 3.97892 15.7912 3.93876 15.6941C3.8986 15.597 3.8397 15.5087 3.76543 15.4343C3.69115 15.3599 3.60295 15.3009 3.50587 15.2606C3.40878 15.2203 3.30471 15.1995 3.19959 15.1995C3.09448 15.1994 2.99038 15.22 2.89323 15.2602C2.79609 15.3003 2.70781 15.3592 2.63343 15.4335L1.03343 17.0335C0.883421 17.1837 0.799233 17.3874 0.799383 17.5997C0.799533 17.812 0.884009 18.0155 1.03423 18.1655C1.18445 18.3155 1.3881 18.3997 1.60039 18.3995C1.81268 18.3994 2.01622 18.3149 2.16623 18.1647L3.76623 16.5647L3.76463 16.5663ZM6.16463 18.9663C6.24104 18.8925 6.30198 18.8042 6.34391 18.7066C6.38584 18.609 6.40791 18.504 6.40883 18.3978C6.40975 18.2916 6.38951 18.1863 6.34928 18.0879C6.30906 17.9896 6.24966 17.9003 6.17454 17.8252C6.09943 17.7501 6.01011 17.6907 5.91179 17.6504C5.81347 17.6102 5.70813 17.59 5.60191 17.5909C5.49568 17.5918 5.39071 17.6139 5.2931 17.6558C5.1955 17.6977 5.10722 17.7587 5.03343 17.8351L1.83343 21.0351C1.68342 21.1853 1.59923 21.389 1.59938 21.6013C1.59953 21.8136 1.68401 22.0171 1.83423 22.1671C1.98445 22.3171 2.1881 22.4013 2.40039 22.4011C2.61268 22.401 2.81622 22.3165 2.96623 22.1663L6.16623 18.9663H6.16463ZM8.56463 21.3663C8.63901 21.292 8.69803 21.2038 8.73833 21.1067C8.77862 21.0097 8.7994 20.9056 8.79947 20.8005C8.79955 20.6953 8.77892 20.5912 8.73876 20.4941C8.6986 20.397 8.6397 20.3087 8.56543 20.2343C8.49115 20.1599 8.40295 20.1009 8.30587 20.0606C8.20878 20.0203 8.10471 19.9995 7.99959 19.9995C7.89448 19.9994 7.79038 20.02 7.69323 20.0602C7.59609 20.1003 7.50781 20.1592 7.43343 20.2335L5.83343 21.8335C5.68342 21.9837 5.59923 22.1874 5.59938 22.3997C5.59953 22.612 5.68401 22.8155 5.83423 22.9655C5.98445 23.1155 6.1881 23.1997 6.40039 23.1995C6.61268 23.1994 6.81622 23.1149 6.96623 22.9647L8.56623 21.3647L8.56463 21.3663ZM15.1998 10.7967C15.7298 10.7967 16.2381 10.5862 16.6129 10.2114C16.9877 9.83661 17.1982 9.32831 17.1982 8.7983C17.1982 8.26829 16.9877 7.75999 16.6129 7.38522C16.2381 7.01044 15.7298 6.7999 15.1998 6.7999C14.6698 6.7999 14.1615 7.01044 13.7867 7.38522C13.412 7.75999 13.2014 8.26829 13.2014 8.7983C13.2014 9.32831 13.412 9.83661 13.7867 10.2114C14.1615 10.5862 14.6698 10.7967 15.1998 10.7967Z" fill="white"/>
</svg>
