<svg width="32" height="32" viewBox="0 0 32 32" fill="none" xmlns="http://www.w3.org/2000/svg">
<path d="M11.8857 0C15.038 0 18.0612 1.25224 20.2902 3.48124C22.5192 5.71025 23.7714 8.73343 23.7714 11.8857C23.7714 14.657 22.8154 17.2177 21.2237 19.2474C21.0558 19.4616 21.0671 19.7689 21.2596 19.9613C21.3575 20.0593 21.4904 20.1143 21.6289 20.1143H22.1349C22.5973 20.1143 23.0409 20.298 23.3679 20.625L30.6286 27.8857C31.386 28.6431 31.386 29.8712 30.6286 30.6286C29.8712 31.386 28.6431 31.386 27.8857 30.6286L20.625 23.3679C20.298 23.0409 20.1143 22.5973 20.1143 22.1349V21.6289C20.1143 21.4904 20.0593 21.3575 19.9613 21.2596C19.7689 21.0671 19.4616 21.0558 19.2474 21.2237C17.2177 22.8154 14.657 23.7714 11.8857 23.7714C8.73343 23.7714 5.71025 22.5192 3.48124 20.2902C1.25224 18.0612 0 15.038 0 11.8857C0 8.73343 1.25224 5.71025 3.48124 3.48124C5.71025 1.25224 8.73343 0 11.8857 0ZM11.8857 3.65714C7.31429 3.65714 3.65714 7.31429 3.65714 11.8857C3.65714 16.4571 7.31429 20.1143 11.8857 20.1143C16.4571 20.1143 20.1143 16.4571 20.1143 11.8857C20.1143 7.31429 16.4571 3.65714 11.8857 3.65714Z" fill="#39404B" fill-opacity="0.8"/>
</svg>
